<?xml version="1.0" standalone="no"?>
<!DOCTYPE svg PUBLIC "-//W3C//DTD SVG 20010904//EN"
 "http://www.w3.org/TR/2001/REC-SVG-20010904/DTD/svg10.dtd">
<svg version="1.0" xmlns="http://www.w3.org/2000/svg"
 width="1915.000000pt" height="1878.000000pt" viewBox="0 0 1915.000000 1878.000000"
 preserveAspectRatio="xMidYMid meet">

<g transform="translate(0.000000,1878.000000) scale(0.100000,-0.100000)"
fill="#000000" stroke="none">
<path d="M7626 18354 l-418 -424 4438 -2 4439 -3 -176 -177 -176 -178 -4444 0
-4444 0 -2818 -2818 -2817 -2817 0 -4443 0 -4444 -153 -151 -152 -152 -5 4437
-5 4436 -448 -441 -448 -442 1 -4450 0 -4450 915 -915 915 -915 0 1830 0 1830
6458 6458 6457 6457 2200 0 2200 0 -1100 1100 -1100 1100 -4450 -1 -4450 0
-419 -425z m1708 -2952 l868 -1403 -237 -232 c-131 -128 -241 -233 -246 -235
-4 -2 -429 261 -944 584 -515 322 -937 585 -939 583 -2 -2 250 -432 559 -956
l563 -952 -196 -194 c-109 -107 -218 -213 -244 -237 l-48 -42 -158 103 c-88
57 -716 469 -1396 914 l-1237 810 238 232 c131 128 241 232 246 233 4 0 435
-299 959 -665 523 -366 952 -664 953 -663 1 2 -272 455 -607 1008 l-609 1005
203 197 c112 109 205 198 208 198 3 0 448 -285 990 -634 542 -349 986 -633
988 -632 1 2 -285 438 -638 969 -352 531 -640 970 -640 974 -1 4 106 112 237
240 204 198 239 229 249 215 6 -10 401 -648 878 -1420z m-3592 -1575 l186
-194 -538 -523 -539 -524 57 -61 c31 -33 152 -157 268 -276 l212 -217 458 448
459 448 188 -188 188 -187 -203 -200 c-112 -109 -318 -311 -458 -447 -140
-137 -256 -251 -257 -255 -1 -3 134 -145 300 -314 l302 -308 540 526 539 526
179 -178 c98 -98 182 -186 188 -195 7 -14 -129 -151 -773 -779 l-782 -762 -51
55 c-27 30 -536 553 -1130 1163 -594 609 -1080 1113 -1080 1120 0 14 1535
1514 1550 1515 6 0 94 -87 197 -193z m-1121 -2809 c574 -589 1084 -1114 1133
-1165 l89 -94 -54 -55 c-30 -31 -138 -136 -241 -235 l-186 -180 -1174 301
c-645 166 -1188 305 -1206 310 -30 8 -32 7 -20 -8 7 -9 339 -352 738 -761 399
-409 725 -747 725 -750 0 -3 -108 -111 -240 -240 l-239 -234 -91 95 c-49 53
-558 576 -1130 1163 -572 587 -1040 1072 -1040 1079 0 17 459 466 477 466 11
0 2229 -567 2387 -610 l35 -9 -51 52 c-28 29 -364 374 -747 767 l-697 715 238
232 c131 128 241 232 244 233 3 0 475 -482 1050 -1072z"/>
</g>
</svg>
