<?xml version="1.0" standalone="no"?>
<!DOCTYPE svg PUBLIC "-//W3C//DTD SVG 20010904//EN"
 "http://www.w3.org/TR/2001/REC-SVG-20010904/DTD/svg10.dtd">
<svg version="1.0" xmlns="http://www.w3.org/2000/svg"
 width="512.000000pt" height="512.000000pt" viewBox="0 0 512.000000 512.000000"
 preserveAspectRatio="xMidYMid meet">

<g transform="translate(0.000000,512.000000) scale(0.100000,-0.100000)"
fill="#000000" stroke="none">
<path d="M2115 5071 c-46 -20 -69 -59 -73 -125 l-4 -64 -64 -4 c-57 -3 -69 -8
-97 -36 -27 -28 -32 -39 -32 -82 0 -43 5 -54 32 -82 28 -28 40 -33 97 -36 l64
-4 4 -64 c3 -57 8 -69 36 -97 28 -27 39 -32 82 -32 43 0 54 5 82 32 28 28 33
40 36 97 l4 64 64 4 c57 3 69 8 97 36 27 28 32 39 32 82 0 43 -5 54 -32 82
-28 28 -40 33 -97 36 l-64 4 -4 64 c-3 56 -8 69 -34 95 -33 33 -92 46 -129 30z"/>
<path d="M4610 5069 c-566 -51 -1126 -257 -1585 -583 -160 -113 -315 -250
-535 -470 l-205 -206 -400 0 c-230 0 -415 -4 -435 -10 -27 -8 -131 -106 -468
-443 -403 -403 -434 -436 -439 -474 -3 -26 0 -50 11 -71 32 -62 33 -62 488
-62 l413 0 648 -648 647 -647 0 -413 c0 -455 0 -456 62 -488 21 -11 45 -14 71
-11 38 5 71 36 474 439 337 337 435 441 443 468 6 20 10 205 10 434 l0 400
238 240 c357 361 513 569 688 919 229 455 357 999 342 1454 -3 112 -3 113 -36
145 l-32 33 -153 1 c-83 1 -195 -2 -247 -7z m226 -331 c-9 -134 -32 -321 -54
-428 -20 -99 -16 -98 -132 -44 -186 87 -348 265 -416 456 -7 21 -9 40 -4 43
31 19 419 70 559 74 l54 1 -7 -102z m-818 -120 c100 -264 333 -498 597 -599
44 -17 81 -32 83 -34 1 -1 -15 -51 -36 -111 -106 -296 -242 -542 -451 -819
-50 -66 -216 -241 -490 -518 l-415 -417 -256 255 -255 255 273 273 c183 183
275 282 280 302 24 84 -59 167 -143 143 -20 -5 -120 -98 -302 -280 l-273 -273
-255 255 -255 256 417 415 c277 274 452 440 518 490 272 205 521 343 815 450
58 21 108 38 111 38 3 1 20 -36 37 -81z m-1988 -1055 c0 -5 -127 -135 -282
-290 l-283 -283 -255 0 -255 0 290 290 290 290 247 0 c137 0 248 -3 248 -7z
m515 -1023 l590 -590 -135 -135 -135 -135 -592 592 -593 593 132 132 c73 73
135 133 138 133 3 0 271 -265 595 -590z m1025 -758 l0 -247 -290 -290 -290
-290 0 255 0 255 282 282 c156 156 286 283 290 283 5 0 8 -111 8 -248z"/>
<path d="M3651 4214 c-247 -66 -398 -318 -336 -559 45 -171 170 -295 342 -340
242 -63 492 90 558 340 86 332 -233 648 -564 559z m183 -236 c81 -24 156 -126
156 -213 0 -56 -24 -110 -70 -155 -93 -93 -216 -93 -311 0 -93 90 -93 217 1
310 65 65 136 84 224 58z"/>
<path d="M1055 4826 c-103 -45 -126 -180 -44 -258 67 -64 156 -64 220 1 124
124 -15 327 -176 257z"/>
<path d="M315 4271 c-46 -20 -69 -59 -73 -125 l-4 -64 -64 -4 c-57 -3 -69 -8
-97 -36 -27 -28 -32 -39 -32 -82 0 -43 5 -54 32 -82 28 -28 40 -33 97 -36 l64
-4 4 -64 c3 -57 8 -69 36 -97 28 -27 39 -32 82 -32 43 0 54 5 82 32 28 28 33
40 36 97 l4 64 64 4 c57 3 69 8 97 36 27 28 32 39 32 82 0 43 -5 54 -32 82
-28 28 -40 33 -97 36 l-64 4 -4 64 c-3 56 -8 69 -34 95 -33 33 -92 46 -129 30z"/>
<path d="M175 2546 c-103 -45 -126 -180 -44 -258 67 -64 156 -64 220 1 124
124 -15 327 -176 257z"/>
<path d="M4715 2471 c-46 -20 -69 -59 -73 -125 l-4 -64 -64 -4 c-57 -3 -69 -8
-97 -36 -27 -28 -32 -39 -32 -82 0 -43 5 -54 32 -82 28 -28 40 -33 97 -36 l64
-4 4 -64 c3 -57 8 -69 36 -97 28 -27 39 -32 82 -32 43 0 54 5 82 32 28 28 33
40 36 97 l4 64 64 4 c57 3 69 8 97 36 27 28 32 39 32 82 0 43 -5 54 -32 82
-28 28 -40 33 -97 36 l-64 4 -4 64 c-3 56 -8 69 -34 95 -33 33 -92 46 -129 30z"/>
<path d="M1160 2224 c-14 -2 -56 -9 -95 -15 -479 -77 -823 -491 -955 -1148
-52 -262 -81 -634 -65 -844 6 -90 10 -102 37 -132 33 -39 79 -52 122 -35 15 5
63 42 105 81 142 131 332 243 516 303 85 28 242 62 250 55 2 -3 -14 -60 -36
-128 -45 -139 -44 -169 12 -216 39 -32 77 -32 199 0 441 118 783 387 911 720
53 137 72 249 67 412 -2 79 -8 146 -12 150 -4 4 -17 -6 -28 -22 -43 -62 -145
-151 -209 -182 -224 -111 -470 -71 -644 102 -122 121 -170 245 -163 420 5 121
29 191 94 287 44 65 112 131 164 158 l25 14 -35 7 c-44 10 -226 19 -260 13z"/>
<path d="M1640 2021 c-90 -29 -165 -95 -202 -176 -33 -72 -32 -190 2 -260 118
-241 455 -238 569 4 34 74 36 183 4 252 -52 114 -150 180 -273 185 -41 2 -86
0 -100 -5z"/>
<path d="M4615 1266 c-103 -45 -126 -180 -44 -258 67 -64 156 -64 220 1 124
124 -15 327 -176 257z"/>
<path d="M3915 671 c-46 -20 -69 -59 -73 -125 l-4 -64 -64 -4 c-57 -3 -69 -8
-97 -36 -27 -28 -32 -39 -32 -82 0 -43 5 -54 32 -82 28 -28 40 -33 97 -36 l64
-4 4 -64 c3 -57 8 -69 36 -97 47 -46 117 -46 164 0 28 28 33 40 36 97 l4 64
64 4 c57 3 69 8 97 36 27 28 32 39 32 82 0 43 -5 54 -32 82 -28 28 -40 33 -97
36 l-64 4 -4 64 c-3 56 -8 69 -34 95 -33 33 -92 46 -129 30z"/>
<path d="M2335 386 c-103 -45 -126 -180 -44 -258 67 -64 156 -64 220 1 124
124 -15 327 -176 257z"/>
</g>
</svg>
