<?xml version="1.0" standalone="no"?>
<!DOCTYPE svg PUBLIC "-//W3C//DTD SVG 20010904//EN"
 "http://www.w3.org/TR/2001/REC-SVG-20010904/DTD/svg10.dtd">
<svg version="1.0" xmlns="http://www.w3.org/2000/svg"
 width="200.000000pt" height="200.000000pt" viewBox="0 0 200.000000 200.000000"
 preserveAspectRatio="xMidYMid meet">

<g transform="translate(0.000000,200.000000) scale(0.100000,-0.100000)"
fill="white" stroke="none">
<path d="M795 1596 c-207 -54 -392 -171 -600 -380 -77 -78 -148 -157 -159
-177 -18 -35 -18 -36 0 -75 23 -48 255 -282 348 -351 220 -162 407 -233 616
-233 260 0 510 119 771 367 121 116 202 217 202 253 0 34 -69 123 -180 231
-206 200 -392 315 -591 365 -129 33 -280 33 -407 0z m371 -136 c102 -26 237
-93 344 -171 96 -70 300 -267 300 -289 0 -25 -230 -241 -327 -308 -406 -277
-766 -222 -1175 178 -65 63 -118 121 -118 129 0 23 179 199 282 276 237 179
470 241 694 185z"/>
<path d="M938 1350 c-62 -11 -161 -64 -200 -109 -17 -19 -44 -64 -61 -99 -25
-54 -30 -76 -30 -143 0 -72 4 -87 37 -154 25 -50 51 -86 80 -109 115 -95 255
-116 379 -58 36 16 84 49 107 72 171 171 124 460 -93 564 -78 37 -145 48 -219
36z m183 -175 c64 -45 91 -104 87 -187 -4 -82 -39 -139 -108 -176 -38 -20 -56
-23 -112 -20 -82 4 -139 39 -176 108 -20 38 -23 56 -20 112 4 82 39 139 108
176 38 20 56 23 112 20 55 -3 75 -9 109 -33z"/>
</g>
</svg>
